<?xml version="1.0" encoding="UTF-8" standalone="no"?>
<!DOCTYPE svg PUBLIC "-//W3C//DTD SVG 1.1//EN" "http://www.w3.org/Graphics/SVG/1.1/DTD/svg11.dtd">
<svg width="100%" height="100%" viewBox="0 0 2363 827" version="1.1" xmlns="http://www.w3.org/2000/svg" xmlns:xlink="http://www.w3.org/1999/xlink" xml:space="preserve" xmlns:serif="http://www.serif.com/" style="fill-rule:evenodd;clip-rule:evenodd;">
    <g transform="matrix(2.06204,0,0,2.06204,678.25,121.93)">
        <path d="M0,121.555C4.112,115.816 8.353,107.616 12.722,96.948C17.091,86.283 19.23,74.827 19.146,62.577C19.061,50.327 17.346,40.712 14.007,33.731C10.667,26.75 6.597,22.102 1.8,19.789C-2.997,17.475 -8.18,18.462 -13.748,22.745C-19.316,27.028 -24.114,34.696 -28.139,45.744C-32.166,56.794 -34.5,65.534 -35.142,71.955C-35.785,78.382 -35.656,83.995 -34.756,88.791C-33.856,93.584 -32.4,97.76 -30.388,101.319C-28.375,104.874 -28.868,106.244 -31.866,105.428C-34.864,104.616 -38.462,100.654 -42.659,93.544C-50.625,97.742 -57.265,99.434 -62.575,98.621C-67.887,97.809 -71.271,95.643 -72.726,92.128C-59.363,93.244 -52.061,91.94 -50.818,88.211C-49.577,84.487 -49.812,79.623 -51.525,73.626C-53.239,67.632 -58.657,61.335 -67.78,54.74C-76.902,48.143 -82.856,40.006 -85.639,30.325C-88.425,20.646 -88.446,11.777 -85.704,3.725C-94.27,9.981 -98.811,16.082 -99.325,22.035C-99.839,27.989 -98.212,34.478 -94.442,41.502C-90.672,48.528 -89.859,54.931 -92,60.714C-94.142,66.497 -98.597,70.973 -105.364,74.14C-112.131,77.311 -121.083,80.481 -132.218,83.648C-125.623,88.618 -121.168,93.928 -118.856,99.586C-116.543,105.236 -113.973,107.228 -111.146,105.558C-108.319,103.887 -104.335,101.984 -99.196,99.841C-97.998,103.27 -100.973,107.039 -108.125,111.149C-115.279,115.258 -119.798,118.728 -121.682,121.555C-123.566,124.385 -126.052,126.351 -129.134,127.467C-130.249,126.096 -130.978,122.948 -131.32,118.018C-131.663,113.096 -133.184,108.296 -135.882,103.628C-138.579,98.961 -141.556,95.492 -144.811,93.226C-148.065,90.953 -150.765,89.199 -152.906,87.953C-155.046,86.711 -156.204,85.319 -156.375,83.778C-153.549,81.379 -149.18,79.946 -143.27,79.476C-137.359,79.003 -131.47,77.739 -125.602,75.681C-119.734,73.63 -115.193,70.567 -111.98,66.497C-108.769,62.425 -107.719,57.607 -108.832,52.041C-109.946,46.473 -111.66,41.332 -113.972,36.621C-116.286,31.909 -116.071,26.617 -113.33,20.749C-110.589,14.885 -103.735,8.418 -92.771,1.349C-81.806,-5.716 -73.283,-10.75 -67.201,-13.75C-67.03,-10.665 -67.973,-8.244 -70.028,-6.489C-72.084,-4.734 -73.733,-2.036 -74.975,1.608C-76.217,5.247 -76.089,10.817 -74.59,18.311C-73.092,25.805 -69.922,31.481 -65.08,35.339C-60.241,39.193 -55.637,43.262 -51.267,47.544C-46.899,51.824 -43.729,56.927 -41.759,62.832C-41.588,45.531 -37.392,31.632 -29.168,21.138C-20.944,10.646 -12.655,4.819 -4.303,3.662C4.047,2.506 11.244,3.984 17.283,8.097C23.321,12.21 27.649,17.989 30.261,25.443C32.874,32.896 34.18,41.976 34.18,52.685C34.008,63.475 32.081,73.863 28.399,83.844C24.715,93.822 20.325,102.601 15.228,110.184C10.131,117.763 2.998,126.137 -6.167,135.305C-6.167,131.879 -4.113,127.293 0,121.555" style="fill:rgb(179,31,36);fill-rule:nonzero;"/>
    </g>
    <g transform="matrix(2.06204,0,0,2.06204,808.346,296.671)">
        <path d="M0,27.238C5.055,32.596 9.208,34.096 12.464,31.735C15.72,29.382 17.069,24.692 16.511,17.668C15.953,10.642 13.019,4.752 7.708,0C2.398,-4.752 -1.863,-6.252 -5.078,-4.497C-8.289,-2.742 -9.508,1.648 -8.74,8.673C-7.967,15.698 -5.055,21.891 0,27.238M-15.805,32.316C-21.115,25.55 -23.942,17.413 -24.286,7.9C-23.516,-0.831 -20.624,-6.832 -15.613,-10.084C-10.602,-13.34 -4.712,-15.055 2.055,-15.229C11.219,-15.055 18.373,-11.969 23.513,-5.976C28.653,0.018 31.351,7.261 31.61,15.742C31.351,24.822 28.738,31.525 23.77,35.848C18.802,40.176 11.821,42.382 2.827,42.467C-4.283,42.467 -10.495,39.086 -15.805,32.316" style="fill:rgb(179,31,36);fill-rule:nonzero;"/>
    </g>
    <g transform="matrix(2.06204,0,0,2.06204,883.589,378.799)">
        <path d="M0,-50.364C2.398,-53.235 5.183,-54.795 8.354,-55.057C12.378,-54.625 15.548,-53.32 17.862,-51.136C20.175,-48.953 22.359,-45.889 24.414,-41.95C28.524,-46.661 31.715,-49.891 33.988,-51.65C36.257,-53.405 39.233,-54.326 42.918,-54.414C47.286,-53.982 51.504,-51.65 55.573,-47.412C59.641,-43.17 61.249,-36.743 60.391,-28.136C59.534,-19.526 59.449,-14.109 60.136,-11.881C60.82,-9.652 62.062,-9.246 63.861,-10.661C65.661,-12.073 67.715,-14.15 70.029,-16.891C72.342,-17.579 73.84,-16.766 74.526,-14.449C67.673,-5.714 62.448,-0.337 58.851,1.677C55.253,3.688 52.213,4.693 49.727,4.693C46.984,4.438 45.251,3 44.523,0.392C43.795,-2.225 43.751,-7.771 44.394,-16.249C45.037,-24.729 44.459,-30.879 42.661,-34.688C40.861,-38.502 38.591,-40.686 35.851,-41.24C33.108,-41.799 30.775,-41.155 28.848,-39.315C26.919,-37.471 25.847,-33.961 25.635,-28.78C25.42,-23.595 25.635,-18.647 26.278,-13.939C26.919,-9.227 26.257,-5.306 24.286,-2.18C22.316,0.949 19.746,2.553 16.576,2.638C13.407,2.723 11.243,1.459 10.087,-1.153C8.93,-3.765 8.417,-6.785 8.546,-10.211C8.671,-13.639 8.93,-17.62 9.314,-22.161C9.702,-26.699 9.444,-30.92 8.546,-34.818C7.646,-38.713 6.447,-41.262 4.948,-42.464C3.45,-43.665 1.992,-42.571 0.579,-39.185C-0.837,-35.804 -2.742,-35.179 -5.138,-37.323C-4.111,-43.147 -2.4,-47.497 0,-50.364" style="fill:rgb(179,31,36);fill-rule:nonzero;"/>
    </g>
    <g transform="matrix(2.06204,0,0,2.06204,1221.11,319.85)">
        <path d="M0,4.627C-4.196,5.573 -4.924,7.646 -2.186,10.86C0.556,14.072 8.18,16.836 20.688,19.146C24.885,17.859 26.383,15.724 25.184,12.724C23.984,9.727 15.589,7.025 0,4.627M10.666,-26.47C18.717,-26.381 24.971,-24.902 29.426,-22.031C33.881,-19.164 40.133,-19.142 48.186,-21.973L43.559,-15.546C37.648,-11.175 30.944,-10.232 23.448,-12.716C15.954,-15.202 11.007,-15.672 8.608,-14.131C6.21,-12.59 5.567,-10.835 6.683,-8.865C7.795,-6.895 10.966,-5.908 16.189,-5.908C21.414,-5.908 25.998,-5.158 29.938,-3.662C33.879,-2.161 36.922,0.514 39.062,4.368C37.777,10.28 34.908,15.554 30.453,20.177C25.998,24.804 20.215,28.443 13.105,31.097C3.513,31.097 -3.128,29.537 -6.809,26.407C-10.493,23.281 -12.467,19.319 -12.722,14.523C-12.55,11.094 -11.799,8.484 -10.471,6.682C-9.145,4.886 -7.367,3.43 -5.139,2.317C-10.021,-0.599 -12.55,-4.493 -12.722,-9.379C-12.635,-13.576 -10.922,-17.431 -7.581,-20.945C-4.24,-24.455 1.842,-26.296 10.666,-26.47" style="fill:rgb(179,31,36);fill-rule:nonzero;"/>
    </g>
    <g transform="matrix(2.06204,0,0,2.06204,1341.93,316.672)">
        <path d="M0,7.713C5.052,4.028 9.808,1.331 14.261,-0.384C18.717,-2.095 19.485,-4.367 16.574,-7.194C13.662,-10.021 10.942,-11.606 8.415,-11.946C5.887,-12.29 3.618,-11.54 1.604,-9.7C-0.41,-7.856 -1.694,-5.653 -2.25,-3.085C-2.808,-0.514 -2.058,3.086 0,7.713M32.955,21.459C29.23,24.974 25.096,27.734 20.558,29.748C16.016,31.758 11.604,32.767 7.321,32.767C3.552,32.767 -0.044,31.695 -3.47,29.556C-6.897,27.412 -10.003,24.16 -12.785,19.789C-15.572,15.421 -17.05,11.094 -17.22,6.811C-17.22,2.358 -15.979,-2.032 -13.495,-6.359C-11.01,-10.683 -7.028,-14.858 -1.544,-18.887C3.938,-22.914 8.865,-24.969 13.233,-25.054C17.173,-24.884 20.236,-23.986 22.42,-22.356C24.604,-20.726 26.062,-18.458 26.79,-15.546C27.518,-12.634 28.588,-10.834 30.003,-10.15C31.414,-9.464 33.042,-9.294 34.885,-9.634C36.727,-9.977 37.818,-9.423 38.16,-7.967C38.502,-6.507 37.367,-4.814 34.755,-2.89C32.145,-0.961 28.994,1.009 25.312,3.024C21.627,5.033 17.86,6.618 14.002,7.779C10.149,8.932 7.15,11.179 5.01,14.52C7.749,17.945 10.982,19.959 14.712,20.562C18.437,21.16 22.357,20.048 26.468,17.217C30.579,14.394 33.813,12.125 36.17,10.406C38.524,8.695 40.474,8.654 42.017,10.28C39.703,14.224 36.684,17.945 32.955,21.459" style="fill:rgb(179,31,36);fill-rule:nonzero;"/>
    </g>
    <g transform="matrix(2.06204,0,0,2.06204,1461.95,316.672)">
        <path d="M0,7.713C5.051,4.028 9.807,1.331 14.262,-0.384C18.717,-2.095 19.485,-4.367 16.573,-7.194C13.661,-10.021 10.941,-11.606 8.414,-11.946C5.888,-12.29 3.617,-11.54 1.604,-9.7C-0.409,-7.856 -1.693,-5.653 -2.251,-3.085C-2.809,-0.514 -2.059,3.086 0,7.713M32.958,21.459C29.229,24.974 25.097,27.734 20.557,29.748C16.017,31.758 11.604,32.767 7.322,32.767C3.553,32.767 -0.045,31.695 -3.471,29.556C-6.897,27.412 -10.004,24.16 -12.786,19.789C-15.57,15.421 -17.049,11.094 -17.221,6.811C-17.221,2.358 -15.979,-2.032 -13.494,-6.359C-11.009,-10.683 -7.025,-14.858 -1.545,-18.887C3.938,-22.914 8.864,-24.969 13.232,-25.054C17.174,-24.884 20.235,-23.986 22.419,-22.356C24.605,-20.726 26.063,-18.458 26.789,-15.546C27.517,-12.634 28.587,-10.834 30.002,-10.15C31.414,-9.464 33.043,-9.294 34.884,-9.634C36.728,-9.977 37.817,-9.423 38.161,-7.967C38.503,-6.507 37.369,-4.814 34.756,-2.89C32.144,-0.961 28.995,1.009 25.313,3.024C21.628,5.033 17.859,6.618 14.005,7.779C10.148,8.932 7.15,11.179 5.011,14.52C7.749,17.945 10.984,19.959 14.711,20.562C18.438,21.16 22.356,20.048 26.469,17.217C30.578,14.394 33.812,12.125 36.17,10.406C38.523,8.695 40.473,8.654 42.016,10.28C39.702,14.224 36.684,17.945 32.958,21.459" style="fill:rgb(179,31,36);fill-rule:nonzero;"/>
    </g>
    <g transform="matrix(2.06204,0,0,2.06204,1575.75,271.494)">
        <path d="M0,50.759C-0.473,48.745 -1.094,44.847 -1.864,39.064C-2.635,33.28 -3.449,28.421 -4.305,24.482C-5.162,20.542 -6.127,17.885 -7.194,16.515C-8.269,15.148 -9.423,14.545 -10.664,14.715C-11.908,14.885 -13.107,15.701 -14.264,17.157C-15.421,18.613 -16.169,17.885 -16.511,14.97C-15.655,11.718 -14.135,9.212 -11.95,7.457C-9.767,5.698 -8.052,3.773 -6.811,1.674C-5.568,-0.425 -4.027,-1.559 -2.188,-1.733C-0.344,-1.903 1.305,-1.474 2.763,-0.447C4.217,0.58 5.609,2.099 6.938,4.113C8.267,6.127 9.015,8.248 9.187,10.476C9.356,12.7 9.551,14.995 9.766,17.35C9.978,19.707 10.621,19.363 11.692,16.319C12.764,13.278 14.112,10.539 15.738,8.1C17.368,5.657 19.423,3.3 21.906,1.031C24.392,-1.238 27.52,-2.889 31.289,-3.917C34.971,-0.917 38.591,0.861 42.146,1.419C45.7,1.977 49.706,2.273 54.159,2.317C58.615,2.358 62.983,2.21 67.267,1.866L67.137,6.618C66.106,10.562 64.29,13.023 61.676,14.009C59.063,14.995 54.414,15.233 47.734,14.715C41.054,14.201 36.085,13.495 32.83,12.598C29.574,11.699 26.685,12.276 24.156,14.33C21.629,16.385 19.68,19.855 18.311,24.737C16.939,29.622 16.339,34.074 16.511,38.103C16.681,42.127 16.404,45.253 15.676,47.482C14.948,49.71 13.706,51.443 11.949,52.685C10.192,53.926 7.771,54.591 4.689,54.676C2.032,54.073 0.47,52.77 0,50.759" style="fill:rgb(179,31,36);fill-rule:nonzero;"/>
    </g>
    <g transform="matrix(2.06204,0,0,2.06204,138.799,508.042)">
        <path d="M0,39.317C0.085,42.917 2.138,46.922 6.168,51.335C10.193,55.747 16.167,60.222 24.093,64.759C32.013,69.301 42.96,70.971 56.923,69.771C70.882,68.574 80.97,64.719 87.179,58.208C93.393,51.697 96.947,44.118 97.845,35.463C98.744,26.812 95.853,18.804 89.172,11.436C82.492,4.068 72.92,4.648 60.456,13.17C47.989,21.694 37.795,27.817 29.874,31.546C21.949,35.271 11.99,37.861 0,39.317M-7.585,-17.606C-16.324,-18.031 -23.838,-16.874 -30.136,-14.136C-36.433,-11.39 -39.881,-6.468 -40.478,0.642C-41.081,7.752 -39.043,12.615 -34.375,15.227C-29.707,17.84 -23.602,19.873 -16.063,21.329C-16.324,8.14 -13.494,-4.842 -7.585,-17.606M-36.945,30.774C-41.527,27.732 -45.083,23.985 -47.611,19.533C-50.138,15.076 -51.485,10.194 -51.656,4.88C-51.485,-1.029 -49.729,-5.995 -46.391,-10.023C-43.048,-14.047 -39.153,-17.132 -34.696,-19.276C-30.244,-21.415 -25.424,-22.787 -20.239,-23.385C-15.06,-23.984 -9.809,-23.855 -4.497,-23C-0.814,-28.995 4.005,-33.814 9.958,-37.457C15.91,-41.097 21.929,-43.411 28.007,-44.393C34.09,-45.38 41.137,-45.121 49.148,-43.624C57.154,-42.124 65.166,-39.962 73.176,-37.135C81.187,-34.309 87.265,-32.978 91.421,-33.148C95.577,-33.322 98.016,-34.519 98.744,-36.747C99.472,-38.98 98.829,-40.753 96.817,-42.083C94.804,-43.411 93.072,-43.879 91.617,-43.496C90.156,-43.107 89.644,-43.58 90.071,-44.907C90.502,-46.237 93.026,-47.283 97.655,-48.059C102.794,-46.603 105.771,-44.116 106.583,-40.602C107.397,-37.091 107.182,-33.688 105.941,-30.388C104.697,-27.091 101.806,-23.943 97.269,-20.943C92.726,-17.946 86.903,-16.637 79.792,-17.026C72.684,-17.41 62.936,-20.152 50.559,-25.247C38.181,-30.343 29.057,-32.188 23.189,-30.772C17.321,-29.361 12.246,-25.695 7.965,-19.789C13.19,-18.588 17.838,-17.026 21.909,-15.096C25.975,-13.171 29.593,-10.514 32.766,-7.129C35.933,-3.748 35.336,-3.123 30.963,-5.267C26.596,-7.411 22.42,-9.25 18.436,-10.795C14.455,-12.336 10.149,-13.404 5.525,-14.006C1.069,-4.668 -0.989,7.194 -0.643,21.588C9.29,19.958 17.878,16.876 25.121,12.334C32.359,7.796 40.731,2.977 50.238,-2.122C59.749,-7.214 69.236,-8.888 78.702,-7.129C88.168,-5.374 95.427,-0.449 100.481,7.648C105.535,15.745 108.105,25.268 108.189,36.235C107.502,47.03 104.461,56.216 99.065,63.799C93.669,71.379 87.12,77.094 79.41,80.949C71.7,84.807 60.863,86.947 46.899,87.376C35.933,87.376 25.438,84.829 15.419,79.729C5.395,74.633 -2.249,68.104 -7.519,60.137C-12.786,52.166 -15.507,45.1 -15.677,38.933C-25.273,36.535 -32.362,33.819 -36.945,30.774" style="fill:rgb(179,31,36);fill-rule:nonzero;"/>
    </g>
    <g transform="matrix(2.06204,0,0,2.06204,474.364,581.565)">
        <path d="M0,43.56C-4.582,48.398 -10.646,50.952 -18.185,51.206C-25.979,50.778 -32.875,47.437 -38.87,41.184C-44.867,34.932 -47.949,27.478 -48.12,18.828C-48.034,10.088 -45.661,3.622 -40.992,-0.577C-36.324,-4.775 -30.09,-7.128 -22.296,-7.646C-12.959,-7.213 -6.62,-6.164 -3.277,-4.498C0.06,-2.824 4.006,-1.925 8.542,-1.799C13.085,-1.667 16.298,-0.791 18.18,0.838C16.468,4.175 12.765,5.913 7.067,6.041C1.37,6.171 -4.091,5.591 -9.315,4.305C-14.54,3.019 -19.319,3.085 -23.646,4.5C-27.972,5.913 -30.517,8.887 -31.291,13.429C-32.058,17.966 -30.989,22.597 -28.078,27.305C-25.166,32.016 -21.653,35.057 -17.542,36.428C-13.432,37.799 -9.532,37.844 -5.847,36.558C-2.163,35.276 1.175,33.091 4.177,30.002C5.974,34.204 4.583,38.723 0,43.56" style="fill:rgb(179,31,36);fill-rule:nonzero;"/>
    </g>
    <g transform="matrix(2.06204,0,0,2.06204,508.012,603.02)">
        <path d="M0,4.118C-0.819,-9.973 -1.521,-20.981 -2.123,-28.907C-2.72,-36.826 -4.522,-49.269 -7.519,-66.235C-7.434,-71.718 -6.726,-76.962 -5.401,-81.973C-4.071,-86.984 -2.575,-90.435 -0.904,-92.32C0.769,-94.204 2.63,-95.232 4.688,-95.402C6.655,-95.232 8.478,-93.428 10.149,-90.006C11.82,-86.577 19.465,-82.383 33.083,-77.412C46.704,-72.446 55.829,-67.861 60.453,-63.662C65.08,-59.464 67.69,-54.239 68.292,-47.986C68.121,-39.077 66.279,-32.396 62.766,-27.944C59.253,-23.486 54.565,-20.191 48.697,-18.051C42.83,-15.907 37.881,-15.135 33.854,-15.737C44.135,-21.133 51.096,-25.353 54.735,-28.394C58.374,-31.432 59.599,-36.209 58.399,-42.721C57.2,-49.232 49.766,-55.078 36.104,-60.259C22.441,-65.444 12.698,-72.099 6.871,-80.239C9.958,-57.968 12.247,-42.909 13.749,-35.071C15.243,-27.237 15.61,-13.206 14.836,7.008C22.29,-1.215 29.122,-6.525 35.335,-8.927C41.544,-11.325 47.393,-11.665 52.874,-9.954C58.354,-8.239 62.019,-3.827 63.86,3.282C65.702,10.392 64.608,18.548 60.583,27.761C56.557,36.97 49.701,45.428 40.024,53.137C30.341,60.848 22.783,66.949 17.342,71.447C11.906,75.944 8.844,80.634 8.156,85.518C7.474,90.4 8.905,93.356 12.463,94.384C16.016,95.411 22.336,95.367 31.416,94.255C26.617,97.595 20.705,99.35 13.683,99.52C5.542,98.752 1.626,94.639 1.922,87.189C2.224,79.735 6.334,72.755 14.26,66.244C22.186,59.732 29.594,53.029 36.49,46.134C43.387,39.238 47.346,31.829 48.375,23.906C49.405,15.979 48.18,10.093 44.711,6.239C41.244,2.385 36.319,2.337 29.935,6.105C23.556,9.879 19.591,14.224 18.049,19.15C16.509,24.076 15.269,28.828 14.326,33.411C13.381,37.993 10.556,40.564 5.843,41.123C1.134,41.677 -0.819,39.176 0,33.606C0.813,28.038 0.813,18.208 0,4.118" style="fill:rgb(179,31,36);fill-rule:nonzero;"/>
    </g>
    <g transform="matrix(2.06204,0,0,2.06204,749.52,435.319)">
        <path d="M0,108.7C-3.514,112.943 -7.087,116.198 -10.731,118.471C-14.371,120.74 -18.632,121.875 -23.516,121.875C-28.054,121.701 -31.332,120.522 -33.344,118.338C-35.357,116.154 -36.812,113.01 -37.715,108.896C-38.614,104.783 -38.955,98.527 -38.739,90.136C-38.528,81.739 -38.509,73.214 -38.679,64.563C-38.85,55.913 -39.748,44.177 -41.375,29.358C-41.204,11.624 -40.2,0.209 -38.359,-4.887C-36.516,-9.983 -33.835,-12.743 -30.328,-13.175C-25.955,-12.234 -23.129,-10.219 -21.845,-7.134C-20.56,-4.052 -18.889,-0.301 -16.836,4.111C-14.777,8.523 -10.535,13.209 -4.113,18.179C2.313,23.149 6.7,27.921 9.058,32.503C11.413,37.085 12.594,42.292 12.594,48.115C11.735,54.542 6.253,60.177 -3.856,65.014C-13.964,69.851 -18.763,71.355 -18.246,69.512C-17.734,67.671 -16.023,66.193 -13.107,65.081C-10.195,63.965 -6.555,62.272 -2.184,60.004C2.182,57.734 4.475,54.649 4.688,50.75C4.904,46.855 1.606,41.733 -5.207,35.396C-12.017,29.054 -19.229,18.221 -26.854,2.885C-26,6.742 -24.65,14.218 -22.809,25.307C-20.966,36.405 -20.861,49.254 -22.487,63.857C-24.113,78.462 -24.801,89.533 -24.545,97.071C-24.284,104.61 -21.714,108.231 -16.836,107.931C-11.951,107.633 -7.324,105.275 -2.956,100.863C1.416,96.454 4.667,94.248 6.811,94.248C5.782,99.643 3.513,104.462 0,108.7" style="fill:rgb(179,31,36);fill-rule:nonzero;"/>
    </g>
    <g transform="matrix(2.06204,0,0,2.06204,813.634,598.528)">
        <path d="M0,27.238C5.055,32.596 9.212,34.096 12.464,31.735C15.722,29.381 17.067,24.692 16.511,17.667C15.953,10.642 13.021,4.752 7.71,0C2.4,-4.753 -1.862,-6.257 -5.074,-4.498C-8.285,-2.742 -9.512,1.647 -8.738,8.673C-7.971,15.697 -5.053,21.886 0,27.238M-15.805,32.315C-21.115,25.549 -23.942,17.412 -24.288,7.9C-23.514,-0.836 -20.624,-6.833 -15.613,-10.085C-10.602,-13.341 -4.711,-15.055 2.053,-15.229C11.219,-15.055 18.377,-11.97 23.517,-5.976C28.655,0.018 31.351,7.26 31.606,15.738C31.351,24.821 28.742,31.524 23.772,35.847C18.802,40.176 11.821,42.382 2.827,42.467C-4.281,42.467 -10.495,39.085 -15.805,32.315" style="fill:rgb(179,31,36);fill-rule:nonzero;"/>
    </g>
    <g transform="matrix(2.06204,0,0,2.06204,914.838,621.708)">
        <path d="M0,4.626C-4.196,5.568 -4.924,7.646 -2.182,10.856C0.556,14.071 8.182,16.836 20.688,19.146C24.886,17.859 26.387,15.724 25.186,12.719C23.986,9.722 15.589,7.024 0,4.626M10.667,-26.47C18.717,-26.382 24.971,-24.903 29.428,-22.032C33.881,-19.164 40.133,-19.143 48.186,-21.973L43.563,-15.547C37.65,-11.175 30.949,-10.232 23.449,-12.716C15.955,-15.203 11.006,-15.672 8.612,-14.135C6.214,-12.591 5.571,-10.835 6.687,-8.865C7.795,-6.895 10.966,-5.913 16.191,-5.913C21.417,-5.913 25.999,-5.159 29.939,-3.662C33.881,-2.162 36.922,0.514 39.065,4.367C37.779,10.28 34.908,15.55 30.457,20.173C25.999,24.803 20.217,28.439 13.109,31.096C3.512,31.096 -3.128,29.533 -6.807,26.406C-10.489,23.28 -12.462,19.319 -12.719,14.522C-12.547,11.093 -11.795,8.484 -10.471,6.681C-9.14,4.885 -7.363,3.429 -5.14,2.316C-10.02,-0.599 -12.547,-4.497 -12.719,-9.379C-12.632,-13.577 -10.921,-17.432 -7.579,-20.945C-4.24,-24.456 1.842,-26.296 10.667,-26.47" style="fill:rgb(179,31,36);fill-rule:nonzero;"/>
    </g>
    <g transform="matrix(2.06204,0,0,2.06204,1029.57,621.708)">
        <path d="M0,4.626C-4.196,5.568 -4.924,7.646 -2.184,10.856C0.558,14.071 8.181,16.836 20.69,19.146C24.884,17.859 26.384,15.724 25.187,12.719C23.986,9.722 15.59,7.024 0,4.626M10.665,-26.47C18.717,-26.382 24.969,-24.903 29.428,-22.032C33.878,-19.164 40.133,-19.143 48.183,-21.973L43.561,-15.547C37.648,-11.175 30.948,-10.232 23.45,-12.716C15.956,-15.203 11.006,-15.672 8.614,-14.135C6.213,-12.591 5.57,-10.835 6.685,-8.865C7.793,-6.895 10.967,-5.913 16.193,-5.913C21.416,-5.913 26,-5.159 29.939,-3.662C33.878,-2.162 36.92,0.514 39.063,4.367C37.781,10.28 34.91,15.55 30.457,20.173C26,24.803 20.217,28.439 13.111,31.096C3.514,31.096 -3.126,29.533 -6.807,26.406C-10.491,23.28 -12.465,19.319 -12.72,14.522C-12.55,11.093 -11.796,8.484 -10.473,6.681C-9.141,4.885 -7.365,3.429 -5.141,2.316C-10.019,-0.599 -12.55,-4.497 -12.72,-9.379C-12.635,-13.577 -10.924,-17.432 -7.58,-20.945C-4.243,-24.456 1.84,-26.296 10.665,-26.47" style="fill:rgb(179,31,36);fill-rule:nonzero;"/>
    </g>
    <g transform="matrix(2.06204,0,0,2.06204,1114.1,645.553)">
        <path d="M0,-35.976C4.542,-37.602 7.409,-39.253 8.606,-40.923C9.808,-42.59 11.027,-45.336 12.272,-49.146C13.512,-52.959 15.419,-55.122 17.989,-55.638C20.217,-55.206 21.863,-54.438 22.937,-53.322C24.007,-52.209 24.773,-50.624 25.247,-48.57C25.72,-46.511 26.126,-44.179 26.472,-41.567C26.813,-38.955 28.203,-37.414 30.647,-36.94C33.086,-36.467 40.729,-36.02 53.58,-35.591L58.464,-35.591L61.165,-31.737L59.362,-27.111C51.823,-25.829 45.7,-25.226 40.986,-25.311C36.277,-25.396 32.7,-25.352 30.261,-25.181C27.816,-25.011 25.978,-23.319 24.735,-20.108C23.495,-16.897 23.495,-12.377 24.735,-6.549C25.978,-0.726 28.332,2.914 31.802,4.37C35.271,5.826 38.849,5.848 42.533,4.433C46.21,3.025 49.405,0.73 52.104,-2.441C54.8,-5.611 56.728,-7.3 57.888,-7.518C59.04,-7.729 60.049,-6.424 60.903,-3.597C56.025,2.571 51.332,7.389 46.835,10.859C42.337,14.329 38.507,16.601 35.335,17.67C32.168,18.741 28.051,19.407 22.998,19.662C18.462,18.804 14.863,16.961 12.206,14.137C9.552,11.31 8.03,7.371 7.644,2.315C7.258,-2.74 7.454,-12.247 8.222,-26.212C3.769,-26.552 1.284,-27.41 0.772,-28.777C0.255,-30.148 0,-32.55 0,-35.976" style="fill:rgb(179,31,36);fill-rule:nonzero;"/>
    </g>
    <g transform="matrix(2.06204,0,0,2.06204,1261.15,618.53)">
        <path d="M0,7.712C5.056,4.027 9.808,1.33 14.261,-0.385C18.717,-2.096 19.485,-4.368 16.573,-7.195C13.663,-10.022 10.942,-11.607 8.418,-11.951C5.889,-12.291 3.62,-11.545 1.607,-9.7C-0.406,-7.86 -1.69,-5.654 -2.247,-3.086C-2.805,-0.514 -2.057,3.082 0,7.712M32.959,21.459C29.233,24.973 25.097,27.733 20.561,29.747C16.018,31.758 11.605,32.767 7.324,32.767C3.555,32.767 -0.044,31.694 -3.466,29.555C-6.896,27.412 -10.003,24.16 -12.782,19.788C-15.568,15.42 -17.05,11.093 -17.22,6.811C-17.22,2.358 -15.975,-2.032 -13.491,-6.36C-11.007,-10.684 -7.024,-14.859 -1.545,-18.887C3.941,-22.915 8.865,-24.97 13.236,-25.055C17.176,-24.885 20.239,-23.986 22.424,-22.357C24.605,-20.727 26.062,-18.458 26.789,-15.547C27.516,-12.635 28.591,-10.835 30.003,-10.151C31.418,-9.464 33.044,-9.294 34.884,-9.634C36.728,-9.977 37.822,-9.424 38.162,-7.968C38.504,-6.508 37.371,-4.815 34.759,-2.89C32.144,-0.961 28.997,1.009 25.313,3.019C21.629,5.033 17.859,6.618 14.006,7.775C10.151,8.932 7.154,11.178 5.011,14.519C7.751,17.944 10.982,19.958 14.713,20.561C18.437,21.159 22.356,20.047 26.468,17.216C30.579,14.394 33.816,12.124 36.17,10.406C38.524,8.695 40.476,8.65 42.016,10.28C39.703,14.22 36.688,17.944 32.959,21.459" style="fill:rgb(179,31,36);fill-rule:nonzero;"/>
    </g>
    <g transform="matrix(2.06204,0,0,2.06204,1332.15,670.993)">
        <path d="M0,-43.047C4.286,-44.414 7.839,-45.959 10.664,-47.67C13.491,-49.381 16.233,-50.283 18.887,-50.371C21.544,-50.283 23.705,-49.429 25.377,-47.8C27.05,-46.17 28.438,-43.753 29.553,-40.538C30.667,-37.327 31.203,-33.517 31.159,-29.105C31.118,-24.693 31.416,-20.324 32.057,-15.997C32.7,-11.67 33.879,-8.954 35.591,-7.838C37.308,-6.722 39.019,-6.533 40.731,-7.262C42.448,-7.989 44.565,-9.549 47.097,-11.951C49.621,-14.35 51.568,-17.627 52.939,-21.78C54.309,-25.935 54.976,-29.873 54.931,-33.602C54.891,-37.327 53.882,-39.3 51.915,-39.515C49.942,-39.726 48.677,-40.435 48.12,-41.632C47.563,-42.833 47.416,-43.968 47.673,-45.035C47.928,-46.108 49.489,-47.009 52.36,-47.736C55.232,-48.465 57.758,-48.827 59.945,-48.827C62.13,-48.827 64.247,-48.505 66.305,-47.866C68.356,-47.223 69.517,-44.865 69.771,-40.797C70.028,-36.729 70.049,-32.593 69.838,-28.399C69.622,-24.201 69.262,-20.583 68.744,-17.542C68.232,-14.501 68.873,-11.608 70.671,-8.869C72.473,-6.127 75.215,-5.248 78.898,-6.231C82.575,-7.217 85.92,-8.567 88.917,-10.28L90.462,-8.736C89.091,-5.824 87.014,-3.359 84.228,-1.349C81.443,0.665 78.49,2.568 75.364,4.367C72.236,6.167 68.788,7.154 65.02,7.324C61.165,7.069 58.124,5.462 55.896,2.505C53.665,-0.451 52.211,-3.681 51.527,-7.195C45.87,-0.943 41.694,3.018 39,4.689C36.299,6.363 33.322,7.239 30.07,7.324C26.644,7.239 23.469,5.417 20.559,1.862C17.648,-1.693 16.041,-4.989 15.74,-8.03C15.438,-11.071 15.229,-15.377 15.099,-20.945C14.974,-26.515 14.415,-30.494 13.425,-32.897C12.441,-35.295 11.263,-36.899 9.892,-37.715C8.522,-38.528 7.047,-38.783 5.461,-38.484C3.88,-38.185 2.654,-38.291 1.801,-38.805C0.942,-39.318 0.347,-40.734 0,-43.047" style="fill:rgb(179,31,36);fill-rule:nonzero;"/>
    </g>
    <g transform="matrix(2.06204,0,0,2.06204,1534.57,475.182)">
        <path d="M0,160.363C0.603,157.448 0.834,149.011 0.71,135.05C0.577,121.086 -0.04,110.166 -1.152,102.284C-2.269,94.405 -2.845,86.586 -2.89,78.833C-2.93,71.08 -3.664,65.899 -5.073,63.283C-6.488,60.675 -8.114,59.045 -9.959,58.401C-11.799,57.759 -13.918,55.766 -16.316,52.429C-16.316,49.433 -15.544,47.504 -14.003,46.646C-12.462,45.789 -9.808,45.361 -6.038,45.361C-6.38,24.973 -6.293,13.473 -5.783,10.861C-5.266,8.249 -3.874,5.68 -1.605,3.152C0.662,0.625 3.363,-1.474 6.491,-3.145C9.617,-4.819 12.98,-5.65 16.579,-5.65C21.287,-5.65 26.086,-5.007 30.971,-3.721C35.853,-2.439 40.154,-0.233 43.884,2.893C47.607,6.02 49.942,9.08 50.885,12.081C50.283,15.679 48.827,18.14 46.514,19.467C44.206,20.798 41.373,21.806 38.036,22.486C34.694,23.177 35.121,22.146 39.322,19.405C43.517,16.667 43.498,13.983 39.256,11.375C35.014,8.762 29.94,6.878 24.027,5.72C18.12,4.564 14.05,4.583 11.821,5.784C9.597,6.984 9.126,10.066 10.41,15.037C11.696,20.007 12.036,30.413 11.439,46.259L29.685,45.616C34.825,46.217 37.866,48.058 38.805,51.144L35.979,55.641C27.756,56.754 19.574,57.396 11.439,57.566C11.264,64.422 12.103,72.303 13.944,81.213C15.787,90.122 15.164,105.066 12.082,126.055C8.995,147.042 7.179,158.8 6.622,161.328C6.064,163.855 4.583,165.419 2.185,166.013C0.132,165.16 -0.597,163.275 0,160.363" style="fill:rgb(179,31,36);fill-rule:nonzero;"/>
    </g>
    <g transform="matrix(2.06204,0,0,2.06204,1632.08,618.53)">
        <path d="M0,7.712C5.053,4.027 9.807,1.33 14.258,-0.385C18.717,-2.096 19.483,-4.368 16.573,-7.195C13.661,-10.022 10.941,-11.607 8.416,-11.951C5.888,-12.291 3.619,-11.545 1.605,-9.7C-0.407,-7.86 -1.691,-5.654 -2.249,-3.086C-2.807,-0.514 -2.059,3.082 0,7.712M32.956,21.459C29.231,24.973 25.097,27.733 20.559,29.747C16.017,31.758 11.604,32.767 7.322,32.767C3.553,32.767 -0.047,31.694 -3.469,29.555C-6.897,27.412 -10.006,24.16 -12.784,19.788C-15.57,15.42 -17.053,11.093 -17.223,6.811C-17.223,2.358 -15.978,-2.032 -13.494,-6.36C-11.007,-10.684 -7.027,-14.859 -1.547,-18.887C3.938,-22.915 8.863,-24.97 13.234,-25.055C17.176,-24.885 20.237,-23.986 22.421,-22.357C24.605,-20.727 26.06,-18.458 26.787,-15.547C27.515,-12.635 28.589,-10.835 30,-10.151C31.416,-9.464 33.041,-9.294 34.884,-9.634C36.726,-9.977 37.819,-9.424 38.159,-7.968C38.503,-6.508 37.369,-4.815 34.756,-2.89C32.144,-0.961 28.995,1.009 25.311,3.019C21.627,5.033 17.857,6.618 14.003,7.775C10.148,8.932 7.152,11.178 5.009,14.519C7.749,17.944 10.98,19.958 14.711,20.561C18.434,21.159 22.354,20.047 26.466,17.216C30.577,14.394 33.813,12.124 36.168,10.406C38.521,8.695 40.475,8.65 42.016,10.28C39.7,14.22 36.686,17.944 32.956,21.459" style="fill:rgb(179,31,36);fill-rule:nonzero;"/>
    </g>
    <g transform="matrix(2.06204,0,0,2.06204,1811.18,435.319)">
        <path d="M0,108.7C-3.512,112.943 -7.086,116.198 -10.731,118.471C-14.369,120.74 -18.63,121.875 -23.513,121.875C-28.051,121.701 -31.329,120.522 -33.343,118.338C-35.353,116.154 -36.809,113.01 -37.714,108.896C-38.612,104.783 -38.952,98.527 -38.738,90.136C-38.527,81.739 -38.507,73.214 -38.677,64.563C-38.849,55.913 -39.747,44.177 -41.373,29.358C-41.203,11.624 -40.197,0.209 -38.357,-4.887C-36.514,-9.983 -33.834,-12.743 -30.325,-13.175C-25.952,-12.234 -23.127,-10.219 -21.843,-7.134C-20.557,-4.052 -18.887,-0.301 -16.834,4.111C-14.775,8.523 -10.535,13.209 -4.109,18.179C2.315,23.149 6.704,27.921 9.062,32.503C11.415,37.085 12.594,42.292 12.594,48.115C11.736,54.542 6.257,60.177 -3.854,65.014C-13.963,69.851 -18.761,71.355 -18.243,69.512C-17.731,67.671 -16.019,66.193 -13.104,65.081C-10.193,63.965 -6.556,62.272 -2.182,60.004C2.185,57.734 4.479,54.649 4.689,50.75C4.904,46.855 1.607,41.733 -5.203,35.396C-12.015,29.054 -19.227,18.221 -26.852,2.885C-25.998,6.742 -24.647,14.218 -22.808,25.307C-20.964,36.405 -20.86,49.254 -22.486,63.857C-24.112,78.462 -24.799,89.533 -24.544,97.071C-24.282,104.61 -21.712,108.231 -16.834,107.931C-11.95,107.633 -7.322,105.275 -2.956,100.863C1.416,96.454 4.669,94.248 6.813,94.248C5.783,99.643 3.515,104.462 0,108.7" style="fill:rgb(179,31,36);fill-rule:nonzero;"/>
    </g>
    <g transform="matrix(2.06204,0,0,2.06204,1129.26,197.229)">
        <path d="M0,37.25L0,37.083L-0.166,37.083L0,37.25ZM-9.02,74C-7.352,74 -5.958,73.557 -4.844,72.662C-3.509,71.886 -2.284,70.489 -1.171,68.486L-1.336,68.652C-0.669,66.539 0.499,64.813 2.169,63.476L2.169,49.444L1.003,49.444C-1.559,49.444 -4.287,48.55 -7.184,46.769C-9.076,45.546 -10.413,44.933 -11.191,44.933C-11.973,44.933 -13.643,46.884 -16.204,50.778C-17.65,52.67 -18.765,54.43 -19.542,56.04C-20.324,57.655 -20.825,59.244 -21.045,60.804L-21.045,60.638C-21.045,65.763 -17.039,70.216 -9.02,74M16.873,84.188C15.979,84.856 15.144,85.467 14.364,86.024C13.584,86.582 12.806,87.141 12.028,87.698C9.577,89.591 6.292,90.536 2.169,90.536L2.169,79.51C1.948,79.735 1.613,79.957 1.168,80.179C0.056,82.074 -1.171,83.607 -2.505,84.775C-3.843,85.943 -5.122,86.919 -6.349,87.698C-9.689,89.479 -13.364,90.366 -17.372,90.366C-18.933,89.479 -20.716,88.419 -22.719,87.196C-24.724,85.969 -26.895,84.357 -29.234,82.352L-28.899,82.518C-34.134,78.951 -36.75,74.775 -36.75,69.986C-36.75,66.202 -34.747,61.307 -30.736,55.29C-28.953,52.508 -27.035,49.917 -24.973,47.522C-22.915,45.128 -20.712,42.818 -18.373,40.59C-13.364,35.912 -9.297,33.573 -6.182,33.573C-5.624,33.798 -5.04,34.104 -4.427,34.493C-3.815,34.885 -3.285,35.191 -2.838,35.409C-2.284,35.746 -1.617,36.138 -0.837,36.581C-0.059,37.028 0.277,37.25 0.167,37.25C0.388,37.25 0.64,37.309 0.918,37.42C1.197,37.53 1.613,37.586 2.169,37.586L2.169,-16.869C2.169,-20.771 3.952,-25.331 7.517,-30.567C9.074,-32.906 10.857,-35.161 12.862,-37.333C14.865,-39.506 17.038,-41.705 19.376,-43.933L19.212,-43.763C21.104,-45.766 23.747,-47.577 27.145,-49.195C30.538,-50.81 34.354,-52.17 38.587,-53.286C36.806,-51.391 34.856,-49.362 32.741,-47.192C30.623,-45.02 28.646,-42.928 26.81,-40.929C24.973,-38.918 23.384,-37.193 22.05,-35.748C20.712,-34.296 19.875,-33.409 19.545,-33.073L19.545,-33.243C18.431,-31.794 17.875,-29.51 17.875,-26.392L17.875,82.015L16.873,84.188Z" style="fill:rgb(179,31,36);fill-rule:nonzero;"/>
    </g>
    <g transform="matrix(2.06204,0,0,2.06204,1967.09,358.597)">
        <path d="M0,40.487C0.052,35.831 -7.671,10.429 -27.807,8.481C-42.208,7.089 -45.767,8.563 -50.343,8.363C-62.51,7.82 -67.813,6.205 -69.88,3.327C-72.665,-0.546 -89.298,-10.786 -86.781,-8.358C-85.073,-6.714 -74.734,0.359 -72.276,5.606C-69.444,11.652 -64.036,17.713 -54.657,16.393C-49.99,15.735 -46.598,13.396 -39.795,13.995C-25.567,15.248 -17.907,37.076 -17.379,39.286C-14.953,49.444 -0.12,51.273 0,40.487" style="fill:rgb(243,148,31);fill-rule:nonzero;"/>
    </g>
    <g transform="matrix(2.06204,0,0,2.06204,2033.32,305.572)">
        <path d="M0,49.764C-84.13,49.764 -89.148,184.693 0.401,184.693C82.323,184.693 83.326,81.892 31.523,21.654C-49.541,-72.603 -182.313,-78.737 -194.36,-79.14C-127.92,-119.467 -93.054,-116.275 -86.96,-117.058C-68.288,-119.467 -80.335,-137.537 -97.983,-135.158C-189.462,-122.815 -254.596,-80.544 -291.538,-28.743C-209.62,-66.088 -113.937,-39.789 -68.266,-24.324C33.731,10.209 48.991,92.094 48.991,111.003C48.991,187.301 -48.991,184.489 -50.195,118.232C-50.905,79.154 -10.441,67.233 0,67.233L0,49.764Z" style="fill:rgb(179,31,36);fill-rule:nonzero;"/>
    </g>
    <g transform="matrix(2.06204,0,0,2.06204,1745.28,351.701)">
        <path d="M0,-139.798C3.1,-140.988 6.158,-142.442 9.124,-143.584C15.394,-146.167 21.008,-147.262 27.287,-149.265C35.17,-151.846 43.264,-153.03 51.712,-154.601C67.205,-157.598 83.634,-159.091 99.659,-157.995C129.778,-155.868 156.979,-149.327 183.098,-136.761C198.247,-129.43 214.543,-119.37 227.982,-108.204C238.374,-100.507 254.834,-80.594 260.046,-71.007C252.874,-83.695 242.927,-95.686 232.325,-105.551C256.163,-85.152 275.163,-53.846 271.116,-22.28C274.85,-51.727 259.228,-79.91 239.145,-100.239C218.765,-120.944 193.703,-135.934 168.423,-146.525C198.239,-135.221 231.018,-115.435 252.845,-86.034C263.664,-71.483 271.204,-54.317 272.456,-36.869C273.832,-19.403 268.518,-2.563 260.245,10.846C257.755,14.932 254.734,19.356 252.249,22.545C261.99,10.233 270.223,-5.124 272.341,-22.369C274.56,-39.587 270.168,-57.711 261.456,-73.448C243.686,-105.179 212.381,-127.686 182.7,-141.397C155.213,-154.047 124.823,-161.32 93.688,-162.006C85.237,-162.343 76.717,-162.02 68.258,-161.366C50.904,-159.947 33.541,-156.509 17.059,-150.893C2.157,-146.538 -22.491,-133.911 -26.367,-129.051C-22.063,-131.407 -17.438,-134.277 -13.129,-136.234C-14.645,-135.271 -16.373,-134.156 -18.195,-133.097C-16.41,-134.015 -14.398,-134.97 -12.78,-135.916C-14.116,-135.124 -15.472,-134.299 -15.912,-133.86C-13.734,-134.893 -10.845,-136.75 -9.159,-137.634C-8.182,-138.159 -3.712,-140.712 -2.349,-141.255C-5.642,-139.301 -9.908,-137.107 -12.427,-135.249C-11.25,-135.818 -10.127,-136.471 -8.944,-136.944C-10.31,-136.154 -12.991,-134.642 -13.608,-134.096C-10.747,-135.63 -8.205,-136.972 -5.133,-138.348C-2.665,-139.517 -0.396,-140.449 1.986,-141.522C-0.854,-140.224 -4.604,-138.356 -6.419,-137.159C-5.081,-137.694 -3.725,-138.368 -2.394,-139.023C-2.544,-138.919 -2.625,-138.842 -2.645,-138.792C-2.05,-139.078 -1.242,-139.393 -0.61,-139.656C-0.573,-139.615 -0.415,-139.627 -0.514,-139.528L-0.525,-139.645" style="fill:white;fill-rule:nonzero;"/>
    </g>
    <g transform="matrix(2.06204,0,0,2.06204,1745.28,63.4301)">
        <path d="M0.001,0L0,0L0.001,0.001L0.001,0Z" style="fill:white;"/>
    </g>
    <g transform="matrix(1.90011,-0.800984,-0.800984,-1.90011,1736.13,64.1658)">
        <path d="M-0.428,2.117C2.836,2.325 7.482,2.204 10.472,2.117" style="fill:white;fill-rule:nonzero;"/>
    </g>
    <g transform="matrix(2.06204,0,0,2.06204,2127.96,428.487)">
        <path d="M0,-176.773C-0.947,-176.424 42.528,-160.571 71.605,-119.081C86.02,-98.893 92.751,-70.855 85.527,-47.888C78.854,-24.822 63.514,-9.396 54.704,0" style="fill:none;fill-rule:nonzero;stroke:white;stroke-width:0.2px;"/>
    </g>
    <g transform="matrix(2.06204,0,0,2.06204,2254.09,380.055)">
        <path d="M0,-106.81C-0.345,-106.696 11.692,-95.003 20.163,-74.015C24.319,-63.6 26.947,-50.689 25.611,-37.427C24.396,-24.179 19.304,-10.963 12.229,0" style="fill:none;fill-rule:nonzero;stroke:white;stroke-width:0.2px;"/>
    </g>
    <g transform="matrix(2.06204,0,0,2.06204,1986.04,377.092)">
        <path d="M0,-158.061C2.155,-157.604 4.364,-157.213 6.45,-156.872C10.892,-156.11 14.373,-154.49 18.673,-153.604C24.077,-152.49 29.083,-150.319 34.584,-148.745C44.692,-145.866 55.059,-142.461 64.704,-137.886C82.792,-129.198 98.899,-120.294 113.716,-108.036C122.295,-100.914 131.422,-92.193 138.464,-83.188C144.185,-76.849 151.198,-61.629 152.728,-54.726C150.658,-63.938 146.396,-73.15 141.119,-81.064C154.099,-64.577 158.477,-41.257 150.256,-21.982C157.751,-39.984 155.104,-60.634 144.897,-76.796C135.087,-93.236 120.717,-106.299 106.478,-117.618C123.552,-105.297 142.804,-88.326 151.66,-65.684C161.314,-42.765 152.166,-17.67 139.984,-1.043C138.234,1.621 136.081,4.434 134.55,6.656C147.217,-9.418 160.094,-32.083 154.884,-56.145C149.933,-79.89 131.812,-98.723 114.992,-112.215C99.203,-124.713 81.423,-134.873 62.502,-142.979C57.393,-145.257 52.179,-147.388 46.929,-149.373C36.156,-153.451 25.053,-156.917 13.819,-159.536C3.932,-162.128 -14.344,-164.717 -18.383,-162.779C-15.127,-162.498 -11.507,-162.339 -8.41,-161.785C-9.612,-161.761 -10.985,-161.749 -12.39,-161.78C-11.062,-161.65 -9.606,-161.377 -8.358,-161.333C-9.394,-161.366 -10.45,-161.381 -10.864,-161.242C-9.282,-161.006 -7.001,-160.962 -5.735,-160.874C-4.993,-160.855 -1.567,-160.7 -0.619,-160.465C-3.169,-160.559 -6.365,-160.73 -8.451,-160.584L-5.913,-160.176C-6.971,-160.17 -8.996,-160.4 -9.552,-160.23C-7.417,-159.975 -5.513,-159.818 -3.314,-159.432C-1.528,-159.129 0.066,-158.799 1.787,-158.565C-0.276,-158.807 -3.035,-159.156 -4.492,-159.085C-3.563,-158.851 -2.566,-158.723 -1.591,-158.593C-1.714,-158.582 -1.789,-158.56 -1.82,-158.527C-1.389,-158.459 -0.831,-158.316 -0.383,-158.239C-0.381,-158.186 -0.292,-158.118 -0.387,-158.082L-0.343,-158.187" style="fill:white;fill-rule:nonzero;"/>
    </g>
    <g transform="matrix(2.06204,0,0,2.06204,1986.04,51.1615)">
        <path d="M0.001,0L0,0L0.001,0.001L0.001,0Z" style="fill:white;"/>
    </g>
    <g transform="matrix(2.02334,0.397605,0.397605,-2.02334,1981.57,41.3621)">
        <path d="M-0.068,-0.698C2.103,-0.607 5.189,-0.573 7.172,-0.698" style="fill:white;fill-rule:nonzero;"/>
    </g>
    <g transform="matrix(-1.62463,1.26988,1.26988,1.62463,2386.72,356.841)">
        <path d="M-0.619,-127.206C-0.561,-127.2 -2.535,-120.232 -4.006,-108.986C-5.377,-97.851 -6.251,-81.899 -0.619,-66.202C4.626,-50.283 18.49,-37.336 32.87,-31.123C47.179,-24.528 60.897,-22.224 69.348,-20.17" style="fill:none;fill-rule:nonzero;stroke:white;stroke-width:0.2px;"/>
    </g>
    <g transform="matrix(2.06204,0,0,2.06204,2292.99,379.072)">
        <path d="M0,-72.104C-0.319,-72.089 5.732,-62.626 6.581,-47.704C7.911,-32.721 0.412,-14.071 -9.671,0" style="fill:none;fill-rule:nonzero;stroke:white;stroke-width:0.2px;"/>
    </g>
    <g transform="matrix(2.06204,0,0,2.06204,1753.68,371.357)">
        <path d="M0,-145.95C3.074,-146.856 6.13,-148.013 9.072,-148.89C15.297,-150.949 20.836,-151.333 27.023,-152.856C34.843,-154.632 42.745,-155.005 51.012,-155.883C66.198,-157.505 82.119,-157.79 97.552,-155.972C126.567,-152.443 152.667,-145.979 178.336,-134.6C193.216,-127.937 209.481,-119.078 223.263,-109.266C233.794,-102.536 251.438,-84.842 257.447,-76.181C249.264,-87.655 238.685,-98.37 227.676,-107.058C252.26,-89.156 273.416,-61.293 273.779,-30.587C273.438,-59.247 255.733,-84.492 234.676,-102.474C213.382,-120.813 188.524,-133.917 163.956,-143.817C192.931,-133.29 225.383,-116.215 249.143,-90.01C260.901,-76.993 269.859,-61.313 273.235,-44.755C276.65,-28.179 274.105,-11.42 268.646,2.786C267.072,7.142 264.926,11.851 263.205,15.357C270.148,1.865 275.403,-14.054 274.984,-30.839C274.801,-47.609 268.603,-64.462 258.605,-78.702C238.446,-107.491 206.858,-126.713 177.864,-139.197C150.962,-150.619 121.956,-157.932 92.005,-160.276C83.881,-161.013 75.663,-161.307 67.471,-161.27C50.659,-161.214 33.679,-159.357 17.282,-155.426C2.506,-152.617 -22.25,-141.863 -26.006,-136.986C-21.792,-139.183 -17.173,-141.721 -12.915,-143.414C-14.447,-142.601 -16.134,-141.521 -17.938,-140.571C-16.173,-141.38 -14.223,-142.295 -12.588,-143.072C-13.945,-142.434 -15.256,-141.616 -15.704,-141.22C-13.597,-142.211 -10.633,-143.672 -8.98,-144.497C-8.041,-145.034 -3.526,-147.122 -2.172,-147.549C-5.528,-146 -9.709,-143.965 -12.272,-142.386L-8.805,-143.794C-10.142,-143.048 -12.867,-141.87 -13.474,-141.337C-10.592,-142.56 -8.108,-143.823 -5.049,-144.92C-2.567,-145.815 -0.349,-146.648 2.033,-147.481C-0.805,-146.458 -4.518,-144.833 -6.364,-143.861C-5.034,-144.27 -3.678,-144.815 -2.348,-145.343C-2.5,-145.254 -2.584,-145.185 -2.605,-145.138C-2.01,-145.362 -1.21,-145.607 -0.594,-145.847C-0.561,-145.804 -0.408,-145.807 -0.509,-145.713L-0.513,-145.83" style="fill:white;fill-rule:nonzero;"/>
    </g>
    <g transform="matrix(2.06204,0,0,2.06204,1753.68,70.4006)">
        <path d="M0.001,0L0,0L0.001,0.001L0.001,0Z" style="fill:white;"/>
    </g>
    <g transform="matrix(1.95472,-0.656581,-0.656581,-1.95472,1744.2,69.6708)">
        <path d="M-0.275,1.682C2.891,1.859 7.394,1.835 10.29,1.682" style="fill:white;fill-rule:nonzero;"/>
    </g>
    <g transform="matrix(2.06204,0,0,2.06204,2126.28,436.548)">
        <path d="M0,-169.085C-0.806,-168.587 41.177,-154.935 73.042,-118.018C88.851,-99.95 98.266,-73.988 94.822,-51.073C91.9,-28.135 80.578,-10.671 74.081,0" style="fill:none;fill-rule:nonzero;stroke:white;stroke-width:0.2px;"/>
    </g>
    <g transform="matrix(2.06204,0,0,2.06204,2253.98,383.318)">
        <path d="M0,-102.015C-0.285,-101.888 12.237,-91.664 22.605,-72.4C27.685,-62.813 31.709,-50.775 32.217,-37.895C32.971,-25.017 29.989,-11.739 25.4,0" style="fill:none;fill-rule:nonzero;stroke:white;stroke-width:0.2px;"/>
    </g>
    <g transform="matrix(2.06204,0,0,2.06204,2004.83,275.973)">
        <path d="M0,-107.052C1.669,-106.903 3.377,-106.837 4.99,-106.785C8.434,-106.669 11.185,-105.525 14.527,-105.252C18.738,-104.905 22.679,-103.469 26.987,-102.709C34.9,-101.306 43.088,-99.549 50.715,-96.592C65.036,-91.01 77.857,-85.215 89.974,-76.818C97.005,-71.946 104.677,-66.102 111.31,-60.278C116.401,-56.196 124.737,-46.239 128.396,-42.084C123.912,-47.963 118.926,-53.965 113.76,-59.197C125.756,-48.446 135.642,-34.48 141.032,-19.557C131.024,-47.903 107.165,-68.703 84.149,-84.311C98.221,-76.028 113.328,-64.456 124.946,-50.027C136.723,-35.691 143.947,-18.38 146.498,-2.454C146.936,-0.045 147.318,2.658 147.662,4.718C146.024,-11.363 140.445,-28.973 129.916,-44.065C119.536,-59.221 105.165,-71.743 91.108,-80.918C78.185,-89.37 64.021,-96.218 48.982,-101.18C44.929,-102.622 40.797,-103.927 36.639,-105.093C28.106,-107.49 19.349,-109.39 10.502,-110.441C2.807,-111.638 -11.918,-111.77 -14.534,-108.282C-12.01,-109.003 -9.223,-109.483 -6.782,-109.448C-7.695,-109.23 -8.731,-108.972 -9.793,-108.737C-8.77,-108.861 -7.631,-108.854 -6.68,-109.011C-7.468,-108.868 -8.267,-108.708 -8.554,-108.498C-7.33,-108.538 -5.604,-108.863 -4.631,-108.984C-4.067,-109.059 -1.436,-109.454 -0.688,-109.332C-2.646,-109.073 -5.1,-108.736 -6.644,-108.257L-4.681,-108.267C-5.477,-108.084 -7.028,-107.988 -7.414,-107.724C-5.79,-107.84 -4.337,-107.958 -2.636,-107.926C-1.254,-107.874 -0.015,-107.795 1.313,-107.805C-0.276,-107.741 -2.4,-107.71 -3.485,-107.393C-2.764,-107.32 -2,-107.335 -1.251,-107.342L-1.418,-107.244C-1.085,-107.236 -0.65,-107.175 -0.306,-107.174C-0.299,-107.121 -0.226,-107.067 -0.294,-107.017L-0.271,-107.128" style="fill:white;fill-rule:nonzero;"/>
    </g>
    <g transform="matrix(2.06204,0,0,2.06204,2004.83,55.2252)">
        <path d="M0.001,0L0,0L0.001,0.001L0.001,0Z" style="fill:white;"/>
    </g>
    <g transform="matrix(2.05758,0.135628,0.135628,-2.05758,2000.34,47.2317)">
        <path d="M-0.006,-0.185C1.68,-0.1 4.072,-0.041 5.604,-0.185" style="fill:white;fill-rule:nonzero;"/>
    </g>
    <g transform="matrix(2.06204,0,0,2.06204,2195.18,305.792)">
        <path d="M0,-94.033C-0.267,-93.881 19.553,-82.819 35.382,-62.832C43.277,-52.948 49.587,-40.761 52.699,-29.118C55.979,-17.495 56.424,-6.796 57.032,0" style="fill:none;fill-rule:nonzero;stroke:white;stroke-width:0.2px;"/>
    </g>
    <g transform="matrix(2.06204,0,0,2.06204,2255.54,274.072)">
        <path d="M0,-52.441C-0.047,-52.419 5.682,-46.427 11.774,-36.725C17.984,-27.093 23.468,-13.225 25.646,0" style="fill:none;fill-rule:nonzero;stroke:white;stroke-width:0.2px;"/>
    </g>
    <g transform="matrix(2.06204,0,0,2.06204,1748.56,345.725)">
        <path d="M0,-144.006C3.184,-144.852 6.363,-145.941 9.391,-146.817C15.812,-148.813 21.456,-149.416 27.769,-151.163C35.717,-153.265 43.755,-154.246 52.145,-155.772C67.53,-158.609 83.67,-160.713 99.564,-160.336C129.386,-159.721 156.759,-154.829 182.515,-142.376C197.456,-135.165 213.132,-124.607 225.689,-112.774C235.431,-104.572 250.621,-83.948 256.157,-74.57C248.804,-87.135 239.779,-99.602 229.845,-109.933C252.364,-87.875 268.094,-57.725 275.453,-27.544C268.591,-55.866 255.122,-82.665 236.261,-104.284C217.514,-126.054 193.254,-142.023 167.951,-151.926C198.046,-141.688 229.005,-119.61 249.186,-89.618C269.691,-59.841 279.835,-24.261 281.656,6.772C281.958,11.492 282.05,16.759 282.093,20.754C282.628,-10.296 275.038,-45.806 257.505,-77.004C240.356,-108.404 212.003,-133.669 182.143,-147.001C154.852,-159.605 124.159,-164.76 93.491,-164.078C85.144,-164.02 76.763,-163.445 68.437,-162.655C51.358,-160.899 34.338,-157.704 17.771,-153.438C2.985,-149.876 -22.683,-141.244 -27.426,-137.458C-22.815,-138.948 -17.849,-140.992 -13.361,-142.273C-14.992,-141.591 -16.844,-140.749 -18.771,-139.949C-16.902,-140.615 -14.797,-141.256 -13.065,-141.904C-14.492,-141.344 -15.946,-140.761 -16.437,-140.377C-14.163,-141.094 -11.023,-142.354 -9.271,-143.044C-8.246,-143.443 -3.561,-145.421 -2.14,-145.718C-5.646,-144.345 -10.033,-142.505 -12.814,-141.192L-9.152,-142.33C-10.585,-141.695 -13.464,-140.705 -14.146,-140.251C-11.091,-141.253 -8.417,-142.237 -5.239,-143.242C-2.659,-144.051 -0.305,-144.664 2.145,-145.502C-0.772,-144.468 -4.724,-143.206 -6.652,-142.223C-5.27,-142.584 -3.855,-143.099 -2.451,-143.532C-2.613,-143.452 -2.703,-143.389 -2.729,-143.343C-2.103,-143.531 -1.265,-143.729 -0.616,-143.932C-0.585,-143.888 -0.428,-143.882 -0.536,-143.794L-0.534,-143.911" style="fill:white;fill-rule:nonzero;"/>
    </g>
    <g transform="matrix(2.06204,0,0,2.06204,1748.56,48.7764)">
        <path d="M0.001,0L0,0L0.001,0.001L0.001,0Z" style="fill:white;"/>
    </g>
    <g transform="matrix(1.98088,-0.57283,-0.57283,-1.98088,1738.7,47.1577)">
        <path d="M-0.211,1.49C3.003,1.55 7.572,1.577 10.516,1.49" style="fill:white;fill-rule:nonzero;"/>
    </g>
    <g transform="matrix(2.06204,0,0,2.06204,2130.04,426.794)">
        <path d="M0,-184.485C-0.672,-184.652 41.688,-167.218 68.378,-124.68C81.82,-104.091 91.131,-79.168 95.051,-56.265C99.243,-33.341 98.165,-12.749 96.573,0.167" style="fill:none;fill-rule:nonzero;stroke:white;stroke-width:0.2px;"/>
    </g>
    <g transform="matrix(2.06204,0,0,2.06204,2250.49,365.999)">
        <path d="M0,-106.631C-0.095,-106.613 10.351,-94.201 20.063,-73.987C29.934,-53.894 37.732,-25.754 38.871,0" style="fill:none;fill-rule:nonzero;stroke:white;stroke-width:0.2px;"/>
    </g>
    <g transform="matrix(2.06204,0,0,2.06204,1748.29,354.196)">
        <path d="M0,-133.08C2.974,-133.808 5.939,-134.784 8.772,-135.533C14.784,-137.246 20.052,-137.629 25.985,-138.964C33.438,-140.697 40.974,-141.086 48.838,-142.087C63.28,-143.952 78.408,-144.796 93.166,-143.644C120.908,-141.384 146.002,-136.173 170.694,-125.978C185.021,-120.041 200.657,-111.912 213.875,-102.747C224.012,-96.518 240.828,-79.736 246.602,-71.552C238.79,-82.44 228.644,-92.538 218.131,-100.747C241.633,-83.976 262.052,-57.416 261.915,-28.199C262.005,-55.458 245.015,-79.556 224.843,-96.466C204.466,-113.795 180.482,-125.778 156.816,-134.538C184.697,-125.325 216.035,-109.664 238.726,-84.736C249.945,-72.39 258.592,-57.479 261.602,-41.674C264.793,-25.885 261.92,-9.911 256.128,3.389C254.33,7.414 252.153,11.84 250.313,15.085C257.568,2.574 263.297,-12.413 263.127,-28.418C263.264,-44.382 257.285,-60.481 247.791,-74.017C228.531,-101.392 198.151,-119.403 170.203,-130.553C144.275,-140.774 116.32,-146.583 87.737,-147.695C79.979,-148.097 72.15,-148.165 64.359,-147.846C48.369,-147.275 32.297,-145.263 16.695,-141.744C2.726,-139.049 -21.313,-130.839 -25.513,-126.899C-21.264,-128.431 -16.661,-130.408 -12.481,-131.628C-13.984,-130.938 -15.701,-130.135 -17.498,-129.401C-15.751,-130.003 -13.79,-130.603 -12.194,-131.26C-13.513,-130.707 -14.854,-130.125 -15.309,-129.769C-13.187,-130.424 -10.312,-131.74 -8.669,-132.354C-7.713,-132.718 -3.332,-134.527 -2.021,-134.851C-5.258,-133.455 -9.404,-131.927 -11.939,-130.549C-10.792,-130.913 -9.681,-131.355 -8.543,-131.643C-9.881,-131.07 -12.528,-130.055 -13.156,-129.617C-10.342,-130.631 -7.856,-131.55 -4.883,-132.43C-2.482,-133.183 -0.3,-133.775 1.998,-134.491C-0.74,-133.607 -4.391,-132.349 -6.191,-131.462C-4.901,-131.781 -3.58,-132.232 -2.284,-132.668C-2.434,-132.589 -2.517,-132.527 -2.54,-132.481C-1.96,-132.664 -1.185,-132.858 -0.577,-133.029C-0.547,-132.983 -0.399,-132.972 -0.5,-132.889L-0.499,-133.005" style="fill:white;fill-rule:nonzero;"/>
    </g>
    <g transform="matrix(2.06204,0,0,2.06204,1748.29,79.7775)">
        <path d="M0.001,0L0,0L0.001,0.001L0.001,0Z" style="fill:white;"/>
    </g>
    <g transform="matrix(1.98658,-0.55272,-0.55272,-1.98658,1738.94,77.6975)">
        <path d="M-0.183,1.343C2.819,1.499 7.088,1.434 9.837,1.343" style="fill:white;fill-rule:nonzero;"/>
    </g>
    <g transform="matrix(2.06204,0,0,2.06204,2104.88,416.275)">
        <path d="M0,-159.046C-0.81,-158.559 39.739,-146.612 70.229,-111.465C85.323,-94.326 94.406,-69.478 90.531,-47.665C87.177,-25.817 75.254,-9.75 68.421,0" style="fill:none;fill-rule:nonzero;stroke:white;stroke-width:0.2px;"/>
    </g>
    <g transform="matrix(2.06204,0,0,2.06204,2227.7,366.988)">
        <path d="M0,-96.81C-0.29,-96.669 11.711,-87.026 21.611,-68.701C26.387,-59.553 30.196,-48.085 30.533,-35.818C31.002,-23.568 27.901,-10.913 22.855,0" style="fill:none;fill-rule:nonzero;stroke:white;stroke-width:0.2px;"/>
    </g>
    <g transform="matrix(2.06204,0,0,2.06204,1758.23,341.775)">
        <path d="M0,-133.08C2.974,-133.808 5.939,-134.784 8.772,-135.533C14.784,-137.246 20.052,-137.629 25.985,-138.964C33.438,-140.697 40.974,-141.086 48.838,-142.087C63.28,-143.952 78.408,-144.796 93.166,-143.644C120.908,-141.384 146.002,-136.173 170.694,-125.978C185.021,-120.041 200.657,-111.912 213.875,-102.747C224.012,-96.518 240.827,-79.736 246.602,-71.552C238.79,-82.44 228.644,-92.537 218.131,-100.746C241.633,-83.976 262.052,-57.416 261.915,-28.199C262.005,-55.458 245.015,-79.555 224.843,-96.466C204.466,-113.795 180.482,-125.778 156.816,-134.538C184.697,-125.325 216.035,-109.664 238.726,-84.736C249.945,-72.39 258.592,-57.479 261.602,-41.674C264.793,-25.885 261.92,-9.911 256.128,3.389C254.33,7.414 252.153,11.84 250.313,15.085C257.568,2.574 263.297,-12.413 263.127,-28.418C263.263,-44.382 257.285,-60.481 247.79,-74.017C228.53,-101.392 198.151,-119.403 170.203,-130.553C144.275,-140.774 116.319,-146.583 87.737,-147.695C79.979,-148.097 72.149,-148.165 64.359,-147.846C48.369,-147.276 32.297,-145.263 16.695,-141.744C2.726,-139.049 -21.313,-130.839 -25.513,-126.899C-21.264,-128.431 -16.661,-130.408 -12.481,-131.628C-13.984,-130.938 -15.701,-130.135 -17.498,-129.401C-15.751,-130.003 -13.79,-130.603 -12.194,-131.26C-13.513,-130.707 -14.854,-130.125 -15.309,-129.769C-13.187,-130.424 -10.312,-131.74 -8.669,-132.354C-7.713,-132.718 -3.332,-134.527 -2.021,-134.851C-5.258,-133.455 -9.405,-131.927 -11.939,-130.549C-10.792,-130.913 -9.681,-131.355 -8.543,-131.643C-9.882,-131.07 -12.528,-130.055 -13.156,-129.617C-10.342,-130.631 -7.856,-131.55 -4.883,-132.43C-2.482,-133.183 -0.3,-133.775 1.998,-134.491C-0.74,-133.607 -4.391,-132.349 -6.192,-131.462C-4.901,-131.781 -3.58,-132.232 -2.284,-132.668C-2.434,-132.589 -2.517,-132.527 -2.54,-132.481C-1.96,-132.664 -1.185,-132.858 -0.577,-133.029C-0.547,-132.983 -0.399,-132.972 -0.5,-132.889L-0.499,-133.005" style="fill:white;fill-rule:nonzero;"/>
    </g>
    <g transform="matrix(2.06204,0,0,2.06204,1758.23,67.3568)">
        <path d="M0.001,0L0,0L0.001,0.001L0.001,0Z" style="fill:white;"/>
    </g>
    <g transform="matrix(1.98658,-0.55272,-0.55272,-1.98658,1748.88,65.2768)">
        <path d="M-0.183,1.343C2.819,1.499 7.088,1.435 9.837,1.343" style="fill:white;fill-rule:nonzero;"/>
    </g>
    <g transform="matrix(2.06204,0,0,2.06204,2114.82,403.853)">
        <path d="M0,-159.045C-0.81,-158.558 39.739,-146.612 70.229,-111.464C85.322,-94.326 94.406,-69.477 90.531,-47.665C87.177,-25.817 75.254,-9.75 68.421,0" style="fill:none;fill-rule:nonzero;stroke:white;stroke-width:0.2px;"/>
    </g>
    <g transform="matrix(2.06204,0,0,2.06204,2237.64,354.567)">
        <path d="M0,-96.81C-0.289,-96.669 11.712,-87.026 21.612,-68.701C26.388,-59.553 30.197,-48.085 30.533,-35.818C31.003,-23.568 27.902,-10.913 22.856,0" style="fill:none;fill-rule:nonzero;stroke:white;stroke-width:0.2px;"/>
    </g>
    <g transform="matrix(2.06204,0,0,2.06204,1733.39,359.166)">
        <path d="M0,-133.081C2.974,-133.809 5.939,-134.785 8.772,-135.534C14.784,-137.247 20.052,-137.63 25.985,-138.965C33.438,-140.698 40.974,-141.087 48.838,-142.087C63.28,-143.953 78.408,-144.796 93.166,-143.644C120.907,-141.384 146.002,-136.174 170.693,-125.978C185.021,-120.042 200.656,-111.913 213.874,-102.748C224.012,-96.518 240.827,-79.737 246.602,-71.553C238.79,-82.44 228.644,-92.538 218.131,-100.747C241.633,-83.977 262.052,-57.416 261.915,-28.2C262.005,-55.459 245.015,-79.556 224.843,-96.466C204.466,-113.796 180.482,-125.779 156.816,-134.539C184.697,-125.325 216.035,-109.665 238.726,-84.737C249.945,-72.391 258.592,-57.48 261.601,-41.674C264.793,-25.886 261.92,-9.912 256.128,3.388C254.33,7.413 252.153,11.839 250.313,15.084C257.568,2.573 263.297,-12.414 263.127,-28.419C263.263,-44.383 257.285,-60.482 247.79,-74.018C228.53,-101.393 198.151,-119.403 170.203,-130.554C144.275,-140.774 116.319,-146.584 87.737,-147.695C79.979,-148.097 72.149,-148.165 64.359,-147.846C48.369,-147.276 32.297,-145.264 16.695,-141.745C2.726,-139.05 -21.313,-130.84 -25.513,-126.9C-21.264,-128.432 -16.661,-130.408 -12.481,-131.629C-13.984,-130.939 -15.701,-130.136 -17.498,-129.402C-15.751,-130.004 -13.79,-130.604 -12.194,-131.261C-13.513,-130.708 -14.854,-130.126 -15.309,-129.77C-13.187,-130.425 -10.312,-131.741 -8.669,-132.355C-7.713,-132.719 -3.332,-134.528 -2.021,-134.852C-5.258,-133.456 -9.405,-131.928 -11.939,-130.55C-10.792,-130.914 -9.681,-131.356 -8.543,-131.644C-9.882,-131.071 -12.528,-130.056 -13.156,-129.618C-10.342,-130.632 -7.856,-131.55 -4.883,-132.431C-2.482,-133.184 -0.3,-133.776 1.998,-134.492C-0.74,-133.608 -4.391,-132.35 -6.192,-131.463C-4.901,-131.782 -3.58,-132.233 -2.284,-132.669C-2.434,-132.59 -2.517,-132.528 -2.54,-132.482C-1.96,-132.665 -1.185,-132.859 -0.577,-133.029C-0.547,-132.984 -0.399,-132.973 -0.5,-132.89L-0.499,-133.006" style="fill:white;fill-rule:nonzero;"/>
    </g>
    <g transform="matrix(2.06204,0,0,2.06204,1733.39,84.7452)">
        <path d="M0.001,0L0,0L0.001,0.001L0.001,0Z" style="fill:white;"/>
    </g>
    <g transform="matrix(1.98658,-0.55272,-0.55272,-1.98658,1724.04,82.6652)">
        <path d="M-0.183,1.343C2.819,1.499 7.088,1.434 9.837,1.343" style="fill:white;fill-rule:nonzero;"/>
    </g>
    <g transform="matrix(2.06204,0,0,2.06204,2089.98,421.243)">
        <path d="M0,-159.045C-0.81,-158.558 39.738,-146.612 70.229,-111.464C85.322,-94.326 94.406,-69.478 90.531,-47.664C87.177,-25.816 75.254,-9.75 68.421,0" style="fill:none;fill-rule:nonzero;stroke:white;stroke-width:0.2px;"/>
    </g>
    <g transform="matrix(2.06204,0,0,2.06204,2212.8,371.956)">
        <path d="M0,-96.81C-0.289,-96.668 11.712,-87.026 21.612,-68.701C26.388,-59.553 30.197,-48.085 30.533,-35.818C31.003,-23.568 27.902,-10.912 22.857,0" style="fill:none;fill-rule:nonzero;stroke:white;stroke-width:0.2px;"/>
    </g>
    <g transform="matrix(2.06204,0,0,2.06204,1745.38,343.909)">
        <path d="M0,-124.403C2.906,-125.415 5.873,-126.423 8.631,-127.46C14.528,-129.621 19.773,-130.43 25.593,-132.308C32.896,-134.7 40.382,-135.853 48.136,-137.672C62.364,-141.042 77.349,-143.595 92.196,-143.981C120.032,-144.513 145.866,-141.347 170.276,-130.521C184.418,-124.282 199.302,-114.802 210.72,-103.578C219.8,-95.902 232.466,-75.773 236.368,-66.437C231.027,-78.829 223.478,-91.007 214.549,-100.886C235.166,-79.9 245.982,-49.363 246.585,-20.428C246.02,-47.576 237.13,-74.604 220.382,-95.479C203.785,-116.508 180.389,-130.864 156.414,-139.129C184.753,-130.743 215.179,-110.858 231.511,-81.081C248.464,-51.629 250.1,-16.384 245.341,12.116C244.651,16.479 243.768,21.324 243.03,24.975C249.335,-3.129 251.048,-37.556 238.056,-68.603C225.695,-99.854 198.221,-123.834 169.884,-135.116C143.885,-145.867 114.97,-149.378 86.355,-147.437C78.568,-146.976 70.739,-146.251 63.009,-145.065C47.13,-142.719 31.336,-139.086 16.074,-134.276C2.42,-130.291 -21.16,-121.03 -25.323,-117.084C-21.097,-118.711 -16.571,-120.888 -12.435,-122.278C-13.908,-121.521 -15.612,-120.688 -17.363,-119.827C-15.657,-120.553 -13.7,-121.194 -12.13,-121.922C-13.431,-121.319 -14.752,-120.685 -15.194,-120.312C-13.097,-121.062 -10.249,-122.446 -8.649,-123.183C-7.728,-123.645 -3.421,-125.643 -2.123,-126.028C-5.316,-124.54 -9.343,-122.664 -11.844,-121.223L-8.487,-122.477C-9.787,-121.799 -12.419,-120.719 -13.027,-120.245C-10.225,-121.327 -7.804,-122.445 -4.866,-123.481C-2.484,-124.324 -0.335,-125.058 1.907,-125.968C-0.756,-124.835 -4.364,-123.418 -6.132,-122.453C-4.852,-122.833 -3.544,-123.346 -2.264,-123.843C-2.41,-123.757 -2.49,-123.692 -2.511,-123.645C-1.937,-123.855 -1.166,-124.082 -0.572,-124.307C-0.54,-124.264 -0.392,-124.264 -0.487,-124.173L-0.493,-124.29" style="fill:white;fill-rule:nonzero;"/>
    </g>
    <g transform="matrix(2.06204,0,0,2.06204,1745.38,87.3831)">
        <path d="M0.001,0L0,0L0.001,0.001L0.001,0Z" style="fill:white;"/>
    </g>
    <g transform="matrix(1.94938,-0.672269,-0.672269,-1.94938,1736.27,86.3427)">
        <path d="M-0.274,1.635C2.732,1.679 7.003,1.807 9.756,1.635" style="fill:white;fill-rule:nonzero;"/>
    </g>
    <g transform="matrix(-1.38423,1.52837,1.52837,1.38423,2368.54,312.124)">
        <path d="M-0.458,-175.289C-0.36,-175.285 -4.182,-165.861 -6.576,-150.232C-8.949,-134.718 -8.729,-112.519 -0.458,-90.938C7.392,-69.232 23.173,-49.537 39.971,-35.826C56.731,-21.873 73.976,-13.373 84.634,-7.817" style="fill:none;fill-rule:nonzero;stroke:white;stroke-width:0.2px;"/>
    </g>
    <g transform="matrix(2.06204,0,0,2.06204,2212.79,374.93)">
        <path d="M0,-103.215C-0.215,-103.173 9.148,-91.065 15.252,-71.014C21.769,-51.113 22.796,-23.689 18.666,0" style="fill:none;fill-rule:nonzero;stroke:white;stroke-width:0.2px;"/>
    </g>
    <g transform="matrix(2.06204,0,0,2.06204,1738.83,311.384)">
        <path d="M0,-118.492C2.853,-119.39 5.692,-120.501 8.403,-121.421C14.154,-123.472 19.266,-124.174 24.961,-125.863C32.113,-128.017 39.419,-128.941 47.019,-130.404C60.959,-133.171 75.655,-134.949 90.101,-134.568C117.236,-133.75 141.976,-129.372 165.976,-119.264C179.902,-113.388 194.904,-105.026 207.475,-95.633C217.107,-89.189 233.03,-72.278 238.958,-64.404C231.085,-74.975 221.587,-85.214 211.567,-93.549C234.223,-76.086 252.001,-50.61 259.706,-23.429C245.351,-75.406 198.65,-111.741 152.446,-127.657C179.927,-119.045 209.745,-102.212 231.285,-77.375C253.217,-52.824 264.647,-20.716 265.997,7.601C266.232,11.896 266.386,16.692 266.396,20.326C267.155,-7.907 259.402,-40.501 240.126,-66.869C221.34,-93.498 193.055,-112.911 165.542,-123.792C140.236,-133.922 112.562,-138.818 84.591,-138.347C76.991,-138.297 69.35,-137.868 61.765,-137.12C46.204,-135.536 30.665,-132.531 15.701,-128.071C2.278,-124.508 -20.659,-115.182 -24.569,-111.144C-20.5,-112.845 -16.113,-115.001 -12.106,-116.42C-13.532,-115.664 -15.161,-114.784 -16.874,-113.969C-15.202,-114.65 -13.322,-115.339 -11.803,-116.067C-13.058,-115.455 -14.333,-114.813 -14.756,-114.437C-12.722,-115.19 -9.99,-116.629 -8.425,-117.324C-7.515,-117.735 -3.352,-119.761 -2.092,-120.148C-5.165,-118.598 -9.112,-116.853 -11.51,-115.371C-10.41,-115.789 -9.348,-116.275 -8.256,-116.622C-9.527,-115.983 -12.055,-114.853 -12.642,-114.387C-9.95,-115.524 -7.578,-116.56 -4.73,-117.593C-2.433,-118.463 -0.337,-119.163 1.857,-120.008C-0.756,-118.971 -4.245,-117.539 -5.947,-116.562C-4.707,-116.945 -3.443,-117.462 -2.205,-117.963C-2.346,-117.876 -2.423,-117.81 -2.442,-117.763C-1.889,-117.979 -1.141,-118.204 -0.56,-118.409C-0.527,-118.366 -0.383,-118.363 -0.476,-118.274L-0.482,-118.39" style="fill:white;fill-rule:nonzero;"/>
    </g>
    <g transform="matrix(2.06204,0,0,2.06204,1738.83,67.0467)">
        <path d="M0.001,0L0,0L0.001,0.001L0.001,0Z" style="fill:white;"/>
    </g>
    <g transform="matrix(1.94935,-0.672342,-0.672342,-1.94935,1729.89,65.8864)">
        <path d="M-0.267,1.595C2.663,1.736 6.831,1.682 9.513,1.595" style="fill:white;fill-rule:nonzero;"/>
    </g>
    <g transform="matrix(2.06204,0,0,2.06204,2085.67,388.418)">
        <path d="M0,-159.568C-0.65,-159.38 38.516,-146.515 67.393,-111.399C81.821,-94.294 92.199,-72.161 96.203,-51.344C100.504,-30.508 98.991,-11.704 98.049,0" style="fill:none;fill-rule:nonzero;stroke:white;stroke-width:0.2px;"/>
    </g>
    <g transform="matrix(2.06204,0,0,2.06204,2203.41,332.804)">
        <path d="M0,-93.617C-0.154,-93.541 10.824,-83.603 21.365,-66.171C32.213,-48.956 40.401,-23.497 41.298,0" style="fill:none;fill-rule:nonzero;stroke:white;stroke-width:0.2px;"/>
    </g>
</svg>
